<?xml version="1.0" encoding="UTF-8"?>
<svg version="1.1" xmlns="http://www.w3.org/2000/svg" width="512" height="512">
<path d="M0 0 C4.59736682 3.89776752 6.77303 6.71835425 7.37109375 12.73046875 C8.10109337 38.83903827 -5.14889723 67.40256761 -22 87 C-22.59714373 87.74844901 -23.19428745 88.49689802 -23.80952644 89.26802731 C-27.90716547 94.18545692 -32.0622061 97.97537096 -37.55587769 101.25233459 C-60.74211978 115.09736237 -85.3628159 134.6497183 -93.0472126 161.68419933 C-98.11708627 184.19693675 -98.07248579 207.71884586 -98.0703125 230.68359375 C-98.0707282 231.51771792 -98.07114389 232.35184208 -98.07157218 233.21124274 C-98.06644623 254.93581499 -97.46317186 276.63308596 -96.66938853 298.34131014 C-96.21330043 310.94655344 -95.90433437 323.54915665 -95.69726562 336.16088867 C-95.6751626 337.50279181 -95.6751626 337.50279181 -95.65261306 338.87180411 C-95.56501371 344.25383216 -95.48204088 349.63592501 -95.40018216 355.01804297 C-95.28006953 362.84663313 -95.1508567 370.67507009 -95.01681519 378.50343323 C-95.00249454 379.34502767 -94.9881739 380.18662211 -94.97341929 381.05371941 C-94.77313301 392.65466534 -94.49553833 404.25141297 -94.14423552 415.84875523 C-94.07327671 418.19786942 -94.00411889 420.54702994 -93.93550372 422.89621365 C-93.74369575 429.42875994 -93.5472332 435.96072541 -93.3114996 442.49185267 C-93.19989189 445.68487547 -93.10766858 448.87847938 -93.01174927 452.07200623 C-92.96529239 453.20355005 -92.91883551 454.33509388 -92.87097085 455.50092691 C-92.69643654 461.94784675 -92.9456708 466.65137345 -97.5 471.64453125 C-102.46424803 475.50992229 -105.71799659 476.42589854 -112 476 C-117.62626198 473.97454569 -121.27912232 470.34601785 -123.98574829 465.08334351 C-124.93082807 462.89101162 -125.79884001 460.68177265 -126.64453125 458.44921875 C-126.97108704 457.61529099 -127.29764282 456.78136322 -127.63409424 455.92216492 C-128.70440784 453.18135818 -129.75841518 450.43458432 -130.8125 447.6875 C-131.56525056 445.75104689 -132.31909317 443.81501797 -133.07397461 441.87939453 C-134.63028468 437.88368189 -136.18016832 433.88556895 -137.72460938 429.88525391 C-139.83869162 424.41141091 -141.97028489 418.94458055 -144.109375 413.48046875 C-146.75671454 406.71564068 -149.39926573 399.94898544 -152.03515625 393.1796875 C-155.68555806 383.80547813 -159.34180583 374.43355927 -162.99981689 365.06231689 C-164.66279422 360.80202209 -166.32558296 356.54165371 -167.98828125 352.28125 C-168.31765686 351.43728668 -168.64703247 350.59332336 -168.98638916 349.7237854 C-171.01755097 344.51886355 -173.04756113 339.313494 -175.07675171 334.10780334 C-183.67335571 312.05422045 -192.30515182 290.0150483 -201 268 C-201.91931305 268.79429413 -202.8386261 269.58858826 -203.78579712 270.4069519 C-206.91001135 273.08603059 -210.06789998 275.72121128 -213.23886108 278.34475708 C-231.41938315 293.42471409 -249.08068231 309.03648008 -266.375 325.125 C-267.05952539 325.7603333 -267.74405078 326.39566661 -268.44931936 327.05025244 C-300.83681823 357.16855432 -330.36265874 385.19101933 -332.26434326 431.50793457 C-332.91098044 454.11397798 -330.40437662 477.41682056 -325.85274315 499.5545826 C-325.6973488 500.36685247 -325.54195446 501.17912235 -325.3818512 502.01600647 C-325.2357972 502.71800202 -325.08974321 503.41999758 -324.93926334 504.14326572 C-325 506 -325 506 -326.2886343 507.7489996 C-328 509 -328 509 -331 509 C-334.81310919 507.7289636 -335.1702339 506.49038507 -337 503 C-337.75173512 501.30447577 -338.46296169 499.59055357 -339.13793945 497.86303711 C-339.53343491 496.85727127 -339.92893036 495.85150543 -340.33641052 494.81526184 C-340.75777786 493.73024887 -341.1791452 492.6452359 -341.61328125 491.52734375 C-342.06006729 490.38742477 -342.50685333 489.2475058 -342.96717834 488.07304382 C-344.17150713 484.99761519 -345.37183221 481.92068578 -346.57012177 478.84290314 C-347.80835983 475.66481604 -349.05118403 472.48852324 -350.29345703 469.31201172 C-352.27383175 464.24638311 -354.25102118 459.17952206 -356.22607422 454.11181641 C-358.31476544 448.75377576 -360.41000899 443.39835992 -362.51097107 438.04512024 C-363.83445684 434.67237357 -365.15514259 431.29853639 -366.47494507 427.92434692 C-367.07312263 426.39619828 -367.6722583 424.86842431 -368.27236938 423.34103394 C-369.08847358 421.26246147 -369.9003312 419.18228395 -370.7109375 417.1015625 C-371.38068604 415.38960693 -371.38068604 415.38960693 -372.06396484 413.64306641 C-373 411 -373 411 -373 409 C-376.16324392 407.96146706 -376.16324392 407.96146706 -380 408 C-381.77357702 409.17981556 -381.77357702 409.17981556 -383.375 410.8125 C-387.20484094 414.4713659 -390.68788388 415.86675294 -396 416 C-400.92157102 415.28661267 -404.701722 413.79112413 -408 410 C-411.29489014 405.05766478 -411.55410227 400.77849508 -411 395 C-409.67266251 391.48255566 -408.59578517 389.51303723 -405.75 387.0625 C-405.1725 386.381875 -404.595 385.70125 -404 385 C-404.34352343 381.40202861 -404.34352343 381.40202861 -405 378 C-405.63780396 377.74738403 -406.27560791 377.49476807 -406.93273926 377.23449707 C-421.77576243 371.35525861 -436.61691144 365.4713266 -451.45544434 359.58076477 C-458.54496179 356.76658287 -465.63596259 353.95619752 -472.72912598 351.1512146 C-476.46352135 349.67336635 -480.19625864 348.19136996 -483.9284668 346.70800781 C-485.63883909 346.02924999 -487.34993794 345.35232005 -489.06176758 344.67724609 C-491.40767974 343.75181782 -493.7509995 342.82011588 -496.09375 341.88671875 C-496.77429443 341.62005905 -497.45483887 341.35339935 -498.15600586 341.07865906 C-500.92252329 339.96959459 -502.8683587 339.1316413 -505 337 C-505.3125 333.5 -505.3125 333.5 -505 330 C-502 328 -502 328 -500.12320423 328.07348442 C-499.41165526 328.22381189 -498.7001063 328.37413937 -497.96699524 328.52902222 C-497.14368525 328.69157973 -496.32037525 328.85413725 -495.47211647 329.02162075 C-494.1156051 329.30071584 -494.1156051 329.30071584 -492.73168945 329.58544922 C-456.50351695 336.37098396 -408.06952798 343.80905197 -375.32183838 321.66778564 C-353.45653876 306.24543979 -334.76158587 286.46276344 -316.625 266.9375 C-315.95809033 266.2209962 -315.29118066 265.5044924 -314.6040616 264.76627636 C-297.15870963 246.00070786 -280.3090486 226.76011602 -264 207 C-268.19466637 204.86376514 -272.35685465 202.75006189 -276.7487793 201.04321289 C-277.60026047 200.71005066 -278.45174164 200.37688843 -279.32902527 200.03363037 C-280.23493912 199.68350891 -281.14085297 199.33338745 -282.07421875 198.97265625 C-283.05034622 198.59167786 -284.02647369 198.21069946 -285.03218079 197.81817627 C-287.14330427 196.99457681 -289.25507761 196.17264158 -291.36743164 195.35220337 C-297.10613117 193.1229661 -302.83980519 190.88085886 -308.57421875 188.640625 C-310.35878983 187.94402519 -310.35878983 187.94402519 -312.17941284 187.23335266 C-324.80334195 182.30274347 -337.40309695 177.31166887 -350 172.3125 C-353.33983813 170.98747585 -356.67970713 169.66252954 -360.01957703 168.33758545 C-362.20361419 167.47115608 -364.38762529 166.604661 -366.5716095 165.73809814 C-374.38828862 162.63724587 -382.20827147 159.54484579 -390.03083801 156.45887756 C-394.40982556 154.73119817 -398.78774669 153.00094342 -403.1628418 151.26342773 C-404.88326282 150.58047078 -406.60372189 149.89760964 -408.32421875 149.21484375 C-409.60276985 148.70744911 -409.60276985 148.70744911 -410.90715027 148.18980408 C-416.68719618 145.90140877 -422.48109594 143.65102474 -428.28225708 141.41673279 C-432.45459144 139.80639084 -436.62063812 138.18016928 -440.78588867 136.55160522 C-442.78112019 135.77595233 -444.77913034 135.00740412 -446.7800293 134.24649048 C-449.55488108 133.19046604 -452.31894894 132.1098164 -455.08203125 131.0234375 C-455.8987178 130.71986832 -456.71540436 130.41629913 -457.55683899 130.10353088 C-463.10126323 127.88366218 -466.71638891 125.03865643 -470 120 C-471.45320819 115.64037544 -471.81697376 111.44107823 -470.3515625 107.0625 C-468.02541323 102.4499647 -464.88031294 99.83005903 -460 98 C-455.97892266 97.53963974 -452.02866015 97.73996591 -447.99212646 97.93186951 C-446.17971383 97.99152699 -446.17971383 97.99152699 -444.33068681 98.05238968 C-441.68314133 98.14167492 -439.03707495 98.23838571 -436.39038849 98.34750557 C-432.08010572 98.52447538 -427.7691195 98.67137133 -423.45751953 98.81213379 C-422.71383103 98.83647043 -421.97014253 98.86080708 -421.20391801 98.88588119 C-419.67288007 98.93593803 -418.14183921 98.98590582 -416.61079556 99.03578772 C-414.24018611 99.11391314 -411.86967904 99.19470743 -409.49917555 99.27597988 C-397.88892016 99.6699122 -386.27886278 99.95494957 -374.66412354 100.17750549 C-373.81985328 100.19380487 -372.97558303 100.21010424 -372.10572883 100.22689753 C-364.25825572 100.37751596 -356.41065479 100.52064114 -348.56293058 100.65753448 C-343.18022661 100.75167558 -337.7976039 100.8496277 -332.41503906 100.95141602 C-331.07464685 100.9766853 -331.07464685 100.9766853 -329.707176 101.00246508 C-317.15127433 101.24514735 -304.60801463 101.64063651 -292.06038159 102.15361078 C-270.45337369 103.03601866 -248.86076841 103.61791013 -227.234375 103.62109375 C-226.39984432 103.62182512 -225.56531365 103.62255649 -224.70549417 103.62331003 C-184.92377348 103.61495288 -149.81914521 102.7111379 -119.83111572 73.10743713 C-109.20207452 62.05171 -99.99661613 49.92607944 -91.79815674 36.98817444 C-87.78664812 30.66061686 -83.29432596 26.17374246 -77 22 C-76.04925535 21.35285081 -76.04925535 21.35285081 -75.07930374 20.69262791 C-56.74083794 8.69122246 -21.99021441 -12.34194662 0 0 Z " fill="#000000" transform="translate(505,3)"/>
</svg>
